<?xml version="1.0" encoding="UTF-8" standalone="no"?>
<!-- Created with Inkscape (http://www.inkscape.org/) -->

<svg
   version="1.1"
   id="svg1"
   width="998.81335"
   height="998.97614"
   viewBox="0 0 998.81335 998.97614"
   xmlns="http://www.w3.org/2000/svg"
   xmlns:svg="http://www.w3.org/2000/svg">
  <defs
     id="defs1" />
  <g
     id="g1"
     transform="translate(-0.67293608,-0.62180161)">
    <path
       style="fill:#000000"
       d="m 466,999.39674 c -1.925,-0.215 -8.675,-0.86669 -15,-1.44821 C 372.51545,990.73275 292.54119,962.46322 225.63881,918.28723 108.85531,841.17448 29.185905,718.59942 7.0431822,581.96776 -0.92351612,532.80926 -1.4332564,478.56324 5.6010728,428.5 26.840081,277.34223 119.67614,141.38359 253.5,65.451385 316.78134,29.545292 385.16473,8.5552771 460.5,1.9135366 c 28.01423,-2.46980225 73.83536,-1.30098455 105,2.6783682 83.73633,10.6921282 165.80841,44.0036072 234,94.9760992 86.11629,64.371016 149.21887,154.491436 180.04927,257.138716 8.21143,27.33929 14.19411,56.66214 18.11631,88.79328 1.49639,12.25863 1.82911,22.31033 1.82054,55 -0.0112,42.72218 -0.6488,51.57548 -6.03655,83.82067 C 958.57394,793.04831 792.89754,958.58149 584,993.4163 c -29.85623,4.97869 -40.42903,5.79938 -78.5,6.09336 -19.8,0.15289 -37.575,0.10208 -39.5,-0.11292 z m 86.5,-89.26507 c 35.21797,-4.8382 65.77156,-12.6359 96.68829,-24.6762 54.66583,-21.28921 101.22803,-51.7125 142.90218,-93.3709 43.35962,-43.34323 74.86843,-92.48674 95.96757,-149.67822 4.80801,-13.03262 12.95569,-39.82016 12.9268,-42.50004 -0.008,-0.77347 -2.49428,3.24696 -5.5243,8.93429 C 865.61356,664.8632 818.52351,719.25725 764.5,760.11403 700.78538,808.29999 624.71906,840.27588 545,852.38494 c -29.97832,4.55361 -38.60885,5.11763 -77.5,5.06478 -31.99474,-0.0435 -39.4925,-0.35389 -55.42512,-2.29464 -45.125,-5.49666 -88.44278,-16.41591 -127.78083,-32.21011 -27.25192,-10.94163 -65.1783,-30.98577 -88.71689,-46.887 -6.98591,-4.71925 -7.67429,-5.00312 -5.821,-2.40041 1.15602,1.62347 8.57998,9.45726 16.49769,17.40841 68.62913,68.919 155.73634,110.37129 253.13438,120.46075 20.15808,2.08818 73.58341,1.28773 93.11177,-1.39505 z M 354.60478,757.9825 C 495.57882,746.85896 640.58939,675.06401 732.26977,571 c 53.08659,-60.25721 85.49731,-132.93215 88.4132,-198.25 0.3376,-7.5625 0.98374,-13.75 1.43587,-13.75 2.44069,0 25.20733,29.40124 36.19611,46.7443 8.14961,12.86213 24.16948,45.00012 29.0388,58.2557 8.0166,21.82333 14.41449,46.65079 17.21513,66.80455 2.45874,17.69346 2.37386,17.35309 4.23813,16.99447 2.15292,-0.41414 2.78223,-5.15411 4.08911,-30.79902 1.4865,-29.16987 -0.51856,-62.35166 -5.43839,-90 -3.33438,-18.73846 -10.12551,-46.13945 -13.01173,-52.5 -0.74872,-1.65 -3.45876,-8.85 -6.0223,-16 C 872.44172,313.92453 847.32359,270.52955 816.08138,233.5188 799.08812,213.38792 773.8802,189.32022 759.57339,179.56682 740.49999,166.56388 714.22082,156.97717 685,152.36225 c -15.68681,-2.47745 -53.93025,-2.4854 -72.46869,-0.0151 -79.85076,10.64049 -158.35943,44.04319 -239.03131,101.69948 -7.15,5.11011 -13.29286,9.73195 -13.6508,10.27074 -0.35795,0.5388 5.7227,8.2253 13.51253,17.08112 22.33499,25.39135 33.77077,39.09514 58.10006,69.62282 12.48297,15.66326 23.27837,28.89017 23.98978,29.39313 0.90771,0.64175 5.73037,-2.21904 16.17095,-9.59257 35.80142,-25.2843 79.3643,-53.2167 112.37748,-72.05615 34.1467,-19.4863 77.74224,-41.46238 80.30277,-40.47981 5.29144,2.03052 6.15249,24.8283 1.4433,38.21406 C 653.91134,330.13996 619.39776,370.38835 565.6713,413.20331 494.22152,470.1421 435.40761,502.64711 379,516.37197 312.03149,532.66646 262.27056,522.15655 225.62603,483.97816 207.00799,464.58082 194.59815,441.67105 189.34508,417 c -2.40452,-11.29282 -2.41744,-37.62061 -0.0248,-50.5 7.35509,-39.59156 25.74847,-77.01294 57.26216,-116.5 62.0146,-77.7051 152.98773,-124.13604 264.91755,-135.20885 16.39462,-1.62186 86.58777,-1.54562 109.1133,0.11852 24.22355,1.78957 32.43553,3.76114 47.8867,11.49681 20.90322,10.46526 25.5,12.02643 25.5,8.66039 0,-2.55985 -45.04117,-21.66799 -67,-28.42389 C 570.63702,89.30223 515.23399,83.707108 458.11318,89.587197 339.46303,101.80119 231.26802,165.44475 161.17239,264.25668 109.57631,336.9903 83.649174,425.07715 87.958273,513 c 1.143062,23.32305 2.473125,38.28651 4.622141,52 6.853973,43.73717 23.456916,84.80685 46.579296,115.22032 35.14831,46.23152 86.82408,73.15878 149.84029,78.07892 10.58667,0.82658 53.75643,0.61816 65.60478,-0.31674 z"
       id="path1" />
  </g>
</svg>
